# xmcd CD database file
#
# Track frame offsets:
#	150
#	22244
#	43586
#	60841
#	85899
#	103232
#	125779
#	151233
#	172113
#	194499
#	216023
#	234228
#	255405
#	279789
#	311176
#
# Disc length: 4483 seconds
#
# Revision: 19
# Processed by: cddbd v1.5.1PL0 Copyright (c) Steve Scherf et al.
# Submitted via: CDex 1.40Release
#
DISCID=cf11810f
DTITLE=Various Artist - Kiss -dramatic love story-
DYEAR=1900
DGENRE=
TTITLE0=小田和正/ラブ・ストーリーは突然に
TTITLE1=CHAGE&ASKA/SAY YES
TTITLE2=藤井フミヤ/TRUE LOVE
TTITLE3=今井美樹/PIECE OF MY WISH
TTITLE4=井上陽水/リバーサイド・ホテル
TTITLE5=小林明子/恋に落ちて-Fall in love-
TTITLE6=杏里/SUMMER CANDLES
TTITLE7=岡村孝子/夢をあきらめないで
TTITLE8=オリジナル・ラブ/接吻 kiss
TTITLE9=松本栄子/Squall
TTITLE10=森川由加里/SHOW ME
TTITLE11=辛島美登里/サイレント・イブ
TTITLE12=久保田利伸/夢 with You
TTITLE13=MISIA/Everything
TTITLE14=S.E.N.S./輝く季節の中で
EXTD=
EXTT0=
EXTT1=
EXTT2=
EXTT3=
EXTT4=
EXTT5=
EXTT6=
EXTT7=
EXTT8=
EXTT9=
EXTT10=
EXTT11=
EXTT12=
EXTT13=
EXTT14=
PLAYORDER=
